<!-- <svg width="20" height="14" viewBox="0 0 20 14" fill="none" xmlns="http://www.w3.org/2000/svg">
<path d="M0 8.4H20V5.6H0V8.4ZM0 14H20V11.2H0V14ZM0 2.8H20V0H0V2.8Z" fill="#808191"/>
</svg> -->

<!DOCTYPE svg PUBLIC "-//W3C//DTD SVG 1.1//EN" "http://www.w3.org/Graphics/SVG/1.1/DTD/svg11.dtd">

<!-- Uploaded to: SVG Repo, www.svgrepo.com, Transformed by: SVG Repo Mixer Tools -->
<svg width="235px" height="235px" viewBox="0 0 20 20" xmlns="http://www.w3.org/2000/svg" fill="none" stroke="#151827" stroke-width="1.06">

<g id="SVGRepo_bgCarrier" stroke-width="0"/>

<g id="SVGRepo_tracerCarrier" stroke-linecap="round" stroke-linejoin="round" stroke="#CCCCCC" stroke-width="0.04"/>

<g id="SVGRepo_iconCarrier"> <path fill="#151827" fill-rule="evenodd" d="M19 4a1 1 0 01-1 1H2a1 1 0 010-2h16a1 1 0 011 1zm0 6a1 1 0 01-1 1H2a1 1 0 110-2h16a1 1 0 011 1zm-1 7a1 1 0 100-2H2a1 1 0 100 2h16z"/> </g>

</svg>